<svg xmlns="http://www.w3.org/2000/svg" viewBox="-91.3 -340.0 1910.3 699.8"><g fill="#FFF"><path transform="matrix(0.323943661971831,0,0,-0.323943661971831,0.00,0)" d="M87.47146780592004 0V710H382.23573390296Q428.7061336588343 710 467.26480012206287 690.6765334147085Q505.82346658529144 671.3530668294171 534.38213304852 639.11786695148Q562.9407995117485 606.8826670735428 578.76426609704 566.8240006103142Q594.5877326823314 526.7653341470857 594.5877326823314 485.1184009765029Q594.5877326823314 427.6480012206286 568.8525328043943 375.67760146475433Q543.1173329264572 323.70720170888006 496.82346658529144 291.47200183094293Q450.52960024412573 259.2368019530058 388.4122673176686 259.2368019530058H165.1141287763198V0ZM165.1141287763198 328.6447970704913H384.2949343912115Q424.29600244125726 328.6447970704913 453.8261367104059 350.2335978028685Q483.35627097955444 371.82239853524567 499.73893805309734 407.76426609704Q516.1216051266402 443.7061336588343 516.1216051266402 485.1184009765029Q516.1216051266402 528.7072017088801 497.0624046383888 564.1490692706744Q478.0032041501373 599.5909368324687 446.8848031736344 620.0914708574917Q415.7664021971315 640.5920048825145 378.1184009765029 640.5920048825145H165.1141287763198Z"/><path transform="matrix(0.323943661971831,0,0,-0.323943661971831,207.97,0)" d="M87.47146780592004 0V710H388.82346658529144Q435.2938663411657 710 473.8525328043943 690.6765334147085Q512.4111992676228 671.3530668294171 540.9698657308513 639.11786695148Q569.52853219408 606.8826670735428 585.3519987793713 566.8240006103142Q601.1754653646628 526.7653341470857 601.1754653646628 485.1184009765029Q601.1754653646628 435.05920048825146 581.8810649984742 390.4413335367715Q562.5866646322856 345.82346658529144 527.8509307293257 314.82346658529144Q493.1151968263656 283.82346658529144 446.5263960939884 273.23573390296L619.938663411657 0H531.7082697589259L366.5306682941715 259.2368019530058H165.1141287763198V0ZM165.1141287763198 328.6447970704913H390.88266707354285Q430.8837351235886 328.6447970704913 460.32560268538293 350.5570643881599Q489.7674702471773 372.4693317058285 506.23840402807446 408.4111992676228Q522.7093378089717 444.3530668294172 522.7093378089717 485.1184009765029Q522.7093378089717 527.0602685382972 503.6501373207202 562.5021361000915Q484.59093683246874 597.9440036618859 453.4725358559658 619.2680042722002Q422.35413487946295 640.5920048825145 384.7061336588343 640.5920048825145H165.1141287763198Z"/><path transform="matrix(0.323943661971831,0,0,-0.323943661971831,426.31,0)" d="M566.6469331705829 69.40799511748551V0H87.47146780592004V710H557.6469331705829V640.5920048825145H165.1141287763198V395.2335978028685H506.94079951174854V329.9429356118401H165.1141287763198V69.40799511748551Z"/><g transform="translate(742.07,-114.68) scale(0.975) translate(-742.07,114.68)"><path transform="matrix(0.323943661971831,0,0,-0.323943661971831,629.42,0)" d="M40.58880073237717 360Q40.58880073237717 424.82346658529144 63.08880073237718 487.3234665852914Q85.58880073237718 549.8234665852914 129.0005340250229 601.3234665852914Q172.4122673176686 652.8234665852914 235.23573390296002 683.4117332926457Q298.05920048825146 714 378.05920048825146 714Q473.05920048825146 714 540.7061336588342 670.5Q608.3530668294171 627 641.1765334147086 559L579.3562709795544 520.061336588343Q557.297070491303 566.297070491303 523.4730698809886 593.5914708574916Q489.6490692706744 620.8858712236802 450.7368019530058 632.3272047604517Q411.8245346353372 643.768538297223 374.05920048825146 643.768538297223Q312.4111992676228 643.768538297223 264.70453158376563 618.8858712236802Q216.99786389990845 594.0032041501373 184.4090631675313 552.4144034177601Q151.82026243515412 510.825602685383 135.43759536161124 459.56026853829724Q119.05492828806837 408.2949343912115 119.05492828806837 356.17653341470856Q119.05492828806837 298.8815990234971 138.52586206896552 246.02799816905707Q157.99679584986268 193.17439731461704 192.76212999694843 152.58559658223987Q227.52746414403418 111.99679584986268 274.6458651205371 88.1141287763198Q321.76426609704 64.23146170277693 377.05920048825146 64.23146170277693Q415.8245346353372 64.23146170277693 456.58986878242297 77.76106194690266Q497.3552029295087 91.29066219102839 532.9440036618859 119.76159597192554Q568.532804394263 148.2325297528227 589.768538297223 193.6447970704913L654.8826670735428 159Q632.5296002441257 106 586.5296002441257 69.0Q540.5296002441257 32 484.2061336588343 13.0Q427.88266707354285 -6 373.05920048825146 -6Q300.23573390296 -6 239.32400061031433 25.5Q178.4122673176686 57 133.9122673176686 109.5Q89.4122673176686 162 65.00053402502289 227.5Q40.58880073237717 293 40.58880073237717 360Z"/></g><path transform="matrix(0.323943661971831,0,0,-0.323943661971831,857.80,0)" d="M87.47146780592004 0V710H165.1141287763198V0Z"/><path transform="matrix(0.323943661971831,0,0,-0.323943661971831,946.24,0)" d="M503.23573390296 570.7093378089717Q489.6469331705828 586.2981385413487 469.38213304852 599.7394720781202Q449.11733292645715 613.1808056148917 424.38213304852 623.4160054928288Q399.6469331705828 633.651205370766 370.67653341470856 639.7098718339945Q341.7061336588343 645.768538297223 309.7061336588343 645.768538297223Q220.8213304851999 645.768538297223 179.085062557217 612.0322703692401Q137.34879462923405 578.2960024412572 137.34879462923405 520.2357339029601Q137.34879462923405 479.94079951174854 157.87839487335978 456.6167989014342Q178.4079951174855 433.29279829111994 221.32026243515412 418.6749313396399Q264.2325297528227 404.0570643881599 330.8805309734513 388.8805309734513Q405.7631980469942 372.8805309734513 460.4693317058285 350.3218645102228Q515.1754653646628 327.7631980469942 544.6167989014343 289.79279829111994Q574.0581324382057 251.82239853524564 574.0581324382057 187.99893194995423Q574.0581324382057 138.41119926762283 554.999465974977 101.61733292645712Q535.9407995117485 64.82346658529143 501.38213304852 40.67653341470857Q466.82346658529144 16.529600244125724 419.91173329264575 4.941333536771437Q373 -6.64693317058285 317.47039975587427 -6.64693317058285Q262.94079951174854 -6.64693317058285 211.97039975587427 4.941333536771437Q161 16.529600244125724 115.70613365883429 38.97093378089716Q70.4122673176686 61.4122673176686 30.76533414708575 95.1184009765029L68.82239853524565 159.99679584986268Q86.76426609703998 141.05492828806837 112.88213304851999 123.93706133658836Q139 106.81919438510833 171.5 92.9957277998169Q204 79.17226121452549 241.64693317058286 71.11359475129693Q279.2938663411657 63.05492828806836 319.2938663411657 63.05492828806836Q400.58986878242297 63.05492828806836 446.03227036924017 92.76159597192554Q491.47467195605736 122.46826365578274 491.47467195605736 180.0581324382057Q491.47467195605736 222.35306682941714 467.7098718339945 247.85360085444006Q443.94507171193163 273.35413487946295 396.7976045163259 290.1485352456515Q349.65013732072015 306.9429356118401 280.825602685383 322.9429356118401Q207.76640219713153 340.41333536771435 157.70720170888006 361.3837351235886Q107.64800122062863 382.35413487946295 82.44186756179433 417.0893347574001Q57.23573390296002 451.8245346353372 57.23573390296002 508.35413487946295Q57.23573390296002 575.2949343912114 89.79440036618858 621.500534025023Q122.35306682941714 667.7061336588343 180.0 691.3530668294172Q237.64693317058286 715 311 715Q358.47039975587427 715 399.26426609704 705.2648001220629Q440.0581324382057 695.5296002441257 475.2637320720171 677.4413335367715Q510.4693317058285 659.3530668294171 540.1162648764114 633.2938663411657Z"/><path transform="matrix(0.323943661971831,0,0,-0.323943661971831,1149.68,0)" d="M87.47146780592004 0V710H165.1141287763198V0Z"/><path transform="matrix(0.323943661971831,0,0,-0.323943661971831,1238.11,0)" d="M374.05920048825146 -5Q299.4122673176686 -5 238.41226731766858 25.088266707354286Q177.4122673176686 55.17653341470857 133.0005340250229 106.58826670735428Q88.58880073237718 158 64.58880073237718 222.5Q40.58880073237717 287 40.58880073237717 355Q40.58880073237717 426 66.00053402502289 490.5Q91.4122673176686 555 136.8240006103143 605.5Q182.23573390296002 656 243.14746719560574 685.5Q304.05920048825146 715 375.7061336588343 715Q450.52960024412573 715 511.4413335367714 684.0Q572.3530668294171 653 616.2648001220629 601.0Q660.1765334147086 549 684.1765334147086 485.0Q708.1765334147086 421 708.1765334147086 354.17653341470856Q708.1765334147086 283 683.1765334147086 218.5Q658.1765334147086 154 612.7648001220629 103.5Q567.3530668294171 53 506.52960024412573 24.0Q445.7061336588343 -5 374.05920048825146 -5ZM119.05492828806837 355Q119.05492828806837 298.8815990234971 137.52586206896552 246.52799816905707Q155.99679584986268 194.17439731461704 189.76212999694843 153.58559658223987Q223.52746414403418 112.99679584986268 270.6458651205371 89.1141287763198Q317.76426609704 65.23146170277693 374.88266707354285 65.23146170277693Q434.0010680500458 65.23146170277693 481.11946902654864 90.1141287763198Q528.2378700030515 114.99679584986268 561.414937442783 156.58559658223987Q594.5920048825145 198.17439731461704 612.151205370766 250.02799816905707Q629.7104058590174 301.8815990234971 629.7104058590174 355Q629.7104058590174 411.1184009765029 611.151205370766 463.06026853829724Q592.5920048825145 515.0021361000915 558.414937442783 556.0026701251145Q524.2378700030515 597.0032041501373 477.61946902654864 620.4741379310344Q431.0010680500458 643.9450717119316 374.88266707354285 643.9450717119316Q315.76426609704 643.9450717119316 268.5575984131828 619.4741379310344Q221.3509307293256 595.0032041501373 188.17386328959412 553.4144034177601Q154.99679584986268 511.825602685383 137.02586206896552 460.3837351235886Q119.05492828806837 408.9418675617943 119.05492828806837 355Z"/><path transform="matrix(0.323943661971831,0,0,-0.323943661971831,1487.55,0)" d="M165.1141287763198 566.419743667989V0H87.47146780592004V710H152.70292950869697L605.9450717119316 132.75678974671956V709.1765334147086H683.5877326823314V0H612.0032041501373Z"/></g><g fill="#FBF831" transform="translate(22.9,204.0)"><path transform="matrix(0.18591549295774648,0,0,-0.18591549295774648,0.00,0)" d="M502 561Q490 575 470.0 588.0Q450 601 425.0 611.5Q400 622 370.5 628.5Q341 635 309 635Q227 635 188.0 604.0Q149 573 149 519Q149 481 169.0 459.0Q189 437 230.5 423.0Q272 409 336 394Q410 378 464.0 355.0Q518 332 547.0 293.5Q576 255 576 191Q576 140 556.5 102.5Q537 65 502.0 40.5Q467 16 420.0 4.5Q373 -7 318 -7Q264 -7 212.5 4.5Q161 16 115.0 38.0Q69 60 29 93L72 169Q88 152 113.5 135.5Q139 119 171.5 105.0Q204 91 242.0 82.5Q280 74 320 74Q396 74 438.0 101.5Q480 129 480 182Q480 222 456.5 246.0Q433 270 387.0 286.0Q341 302 275 318Q203 336 154.0 357.5Q105 379 80.5 414.0Q56 449 56 505Q56 573 89.0 620.0Q122 667 180.0 691.0Q238 715 311 715Q359 715 400.5 705.0Q442 695 478.0 677.0Q514 659 544 634Z"/><path transform="matrix(0.18591549295774648,0,0,-0.18591549295774648,192.56,0)" d="M378 -5Q293 -5 235.0 24.5Q177 54 142.0 104.5Q107 155 91.0 219.0Q75 283 75 351V710H165V351Q165 299 175.5 249.5Q186 200 210.0 161.0Q234 122 275.0 99.0Q316 76 377 76Q439 76 480.0 99.5Q521 123 545.0 162.5Q569 202 579.5 251.0Q590 300 590 351V710H680V351Q680 279 663.5 214.5Q647 150 611.0 101.0Q575 52 517.5 23.5Q460 -5 378 -5Z"/><path transform="matrix(0.18591549295774648,0,0,-0.18591549295774648,412.26,0)" d="M85 0V710H389Q436 710 475.0 690.5Q514 671 543.0 638.5Q572 606 588.0 565.5Q604 525 604 483Q604 434 585.5 390.0Q567 346 533.5 315.0Q500 284 455 272L627 0H525L363 255H175V0ZM175 335H390Q427 335 454.5 355.5Q482 376 497.5 410.0Q513 444 513 483Q513 523 495.0 556.5Q477 590 448.0 610.0Q419 630 384 630H175Z"/><path transform="matrix(0.18591549295774648,0,0,-0.18591549295774648,613.75,0)" d="M85 0V710H554V630H175V393H494V318H175V0Z"/><path transform="matrix(0.18591549295774648,0,0,-0.18591549295774648,801.47,0)" d="M301 710H377L667 0H571L487 208H189L106 0H10ZM467 278 339 606 207 278Z"/><g transform="translate(1071.09,-65.81) scale(0.975) translate(-1071.09,65.81)"><path transform="matrix(0.18591549295774648,0,0,-0.18591549295774648,1006.67,0)" d="M39 360Q39 425 61.5 487.5Q84 550 127.5 601.5Q171 653 234.0 683.5Q297 714 377 714Q472 714 540.0 670.5Q608 627 641 559L570 513Q549 558 516.5 584.5Q484 611 446.5 622.0Q409 633 373 633Q314 633 268.5 609.0Q223 585 192.0 545.0Q161 505 145.5 455.5Q130 406 130 356Q130 301 148.5 250.0Q167 199 200.0 160.0Q233 121 278.0 98.0Q323 75 376 75Q413 75 452.0 88.0Q491 101 525.0 128.5Q559 156 579 200L654 159Q632 106 586.0 69.0Q540 32 483.5 13.0Q427 -6 372 -6Q299 -6 238.0 25.5Q177 57 132.5 109.5Q88 162 63.5 227.5Q39 293 39 360Z"/></g><path transform="matrix(0.18591549295774648,0,0,-0.18591549295774648,1212.81,0)" d="M85 0V710H175V0Z"/><path transform="matrix(0.18591549295774648,0,0,-0.18591549295774648,1340.48,0)" d="M175 544V0H85V710H161L595 155V709H685V0H603Z"/><path transform="matrix(0.18591549295774648,0,0,-0.18591549295774648,1562.97,0)" d="M370 -5Q300 -5 239.5 25.5Q179 56 134.0 107.5Q89 159 64.0 223.5Q39 288 39 357Q39 429 64.0 493.5Q89 558 133.5 608.0Q178 658 238.5 686.5Q299 715 370 715Q473 715 540.0 672.0Q607 629 641 560L572 512Q541 574 487.0 604.0Q433 634 368 634Q314 634 270.0 611.0Q226 588 194.5 548.5Q163 509 146.5 459.0Q130 409 130 355Q130 298 148.5 247.5Q167 197 201.0 158.5Q235 120 280.0 98.0Q325 76 377 76Q438 76 493.0 107.0Q548 138 597 202V109Q501 -5 370 -5ZM586 286H433V354H662V0H586Z"/></g><rect x="28.3" y="233.0" width="1680.7" height="16.7" fill="#FBF831"/></svg>